<svg enable-background="new 0 0 853.3 173.6" viewBox="0 0 853.3 173.6" xmlns="http://www.w3.org/2000/svg"><g fill="#fff"><path d="m815.6 6.4h-5.8v-3.5h15.4v3.5h-5.8v19h-3.8zm13.2-3.5h6.4l5.6 19h.4l5.6-19h6.4v22.5h-3.6v-19h-.4l-5.7 19h-5.1l-5.7-19h-.4v19h-3.6z"/><path d="m584.5 86.8c0-29.2-11.2-55-41.1-55s-41.5 25.8-41.5 55 11.5 55 41.5 55c29.9 0 41.1-25.9 41.1-55m44.1 0c0 49.9-35.3 86.7-85.2 86.7-50.9 0-85.4-35.3-85.4-86.7-.1-48.6 34-86.8 85.3-86.8 50 0 85.3 36.9 85.3 86.8"/><path d="m288.5 70.7h-77.3c.8-5.6 2.4-10.9 4.9-16 6.9-13.9 20-22.8 36.4-22.8 22.4 0 36 15.2 36 37.7zm40.1.6c-2.1-22.5-10.3-40.7-24.2-53-13.3-11.8-31.2-18.2-53.3-18.2-16.3 0-37 5.7-52.2 18.1-18.1 14.9-32.1 38.2-32.1 69.6 0 27.1 8.8 48.8 24.6 63.5 15.4 14.5 37.4 22.3 64.5 22.3 21.9 0 48.3-8.2 59.5-15.2 4-2.4 5.3-3.5 4.3-7.5l-7.1-20c-.8-3.2-4.5-4.1-7.4-2.6-4.5 2.3-9 4.4-13.7 6.2-9.8 3.6-20 6.1-29.6 6.1-20.3 0-31.9-5.5-40.7-15.8-5.6-6.5-8.9-14.6-9.9-24.1h112c4 0 5.9-2.8 5.9-7.6v-8c-.1-3.9-.3-10-.6-13.8"/><path d="m368.9 24c12.7-16.3 32.4-23.8 64.8-23.8 7.7 0 15.3.8 22.8 2.3 3.8.9 4.4 3.9 3.7 7.8l-3.8 18.8c-.8 3.5-1.9 4.5-4.6 4.5-.8 0-1.5-.1-2.3-.2-2.7-.4-10.3-1.2-13.4-1.2-16.1 0-23.7 4-29.5 10-6.7 7.2-6.9 17.7-6.9 36.6v83.8c0 5.5-2.4 8.6-8.3 8.6h-25.6c-5.5 0-7.8-2.7-8.3-8.6v-82.1c-.1-30 1.6-44 11.4-56.5"/><path d="m715.8 58.9c5.7-6 19.1-22.5 33.9-50.4 2.5-4.8 4.8-6 8.1-6h27.5c2.5 0 5.5 1.2 3.9 6-10.9 32.4-35.8 60.8-49.6 75.5 15 14.2 41.7 47.9 54.2 81 1.1 3 .6 6.4-5.7 6.4h-32.9c-3.4 0-6.1-.3-8.4-6-8.1-20.3-20.9-41.6-35.4-55.6-15.9 16.9-28 37.6-36.1 55.6-2 4.4-4 6-8.3 6h-30.1c-2 0-4.1-2.3-2.8-6 9-24.6 26.8-55.2 52.4-78.2-20.2-24.2-39.5-53.8-47.1-78.7-1.2-3.7.8-6 3.6-6h35.4c3.9 0 5.9 1.6 7.8 6 8.7 20.3 20.6 39.6 29.6 50.4"/><path d="m82.2 58.9c5.7-6 19-22.5 33.9-50.4 2.5-4.8 4.7-6 8.1-6h27.5c2.4 0 5.4 1.2 3.8 6-11 32.4-35.9 60.8-49.6 75.5 15 14.3 41.7 48 54.3 81 1.1 3 .5 6.4-5.8 6.4h-32.9c-3.4 0-6-.3-8.3-6-8.1-20.3-20.9-41.6-35.4-55.6-15.9 16.8-28 37.6-36.2 55.6-2 4.4-3.9 6-8.3 6h-30.1c-2 0-4.1-2.3-2.8-6 9-24.6 26.8-55.2 52.3-78.2-19.9-24.2-39.3-53.8-46.9-78.7-1.2-3.7.9-6 3.6-6h35.4c3.9 0 5.8 1.6 7.8 6 8.6 20.3 20.6 39.6 29.6 50.4"/></g></svg>